#Comment line ignore any data following # character 
#Hierarchical Translation and Rotation (.htr) file 
[Header]	
#Header keywords are followed by a single value 
FileType HTR		#Single word string
DataType HTRS		#Translation followed by rotation and scale data
FileVersion 1		#integer
NumSegments 84		#integer
NumFrames 2		#integer
DataFrameRate 30		#integer, data frame rate in this file
EulerRotationOrder ZYX
CalibrationUnits mm
RotationUnits Degrees
GlobalAxisofGravity Y
BoneLengthAxis Y
ScaleFactor 1.00
[SegmentNames&Hierarchy]
#CHILD	PARENT
MASTER GLOBAL
root MASTER
chest root
L_mid_tent01 root
R_mid_tent01 root
spine01 root
Bip01_Neck chest
L_humerus chest
R_humerus chest
weapon_bone chest
Bip01_Head Bip01_Neck
eye_left_bone Bip01_Head
eye_right_bone Bip01_Head
L_forearm L_humerus
L_front_hand L_forearm
L_weapon_bone L_forearm
L_front_hand01_01 L_front_hand
L_front_hand02_01 L_front_hand
L_front_hand03_01 L_front_hand
L_front_hand01_02 L_front_hand01_01
L_front_hand02_02 L_front_hand02_01
L_front_hand03_02 L_front_hand03_01
R_forearm R_humerus
R_front_hand R_forearm
R_weapon_bone R_forearm
R_front_hand01_01 R_front_hand
R_front_hand02_01 R_front_hand
R_front_hand03_01 R_front_hand
R_front_hand01_02 R_front_hand01_01
R_front_hand02_02 R_front_hand02_01
R_front_hand03_02 R_front_hand03_01
null_rope01_connect L_mid_tent01
Rope1_Seg01 null_rope01_connect
Rope1_Seg02 Rope1_Seg01
Rope1_Seg03 Rope1_Seg02
Rope1_Seg04 Rope1_Seg03
Rope1_Seg05 Rope1_Seg04
Rope1_Seg06 Rope1_Seg05
Rope1_Seg07 Rope1_Seg06
Rope1_Seg09 Rope1_Seg07
L_mid_hand01 Rope1_Seg09
L_mid_hand02 Rope1_Seg09
L_mid_hand03 Rope1_Seg09
null_rope02_connect R_mid_tent01
Rope2_Seg01 null_rope02_connect
Rope2_Seg02 Rope2_Seg01
Rope2_Seg03 Rope2_Seg02
Rope2_Seg04 Rope2_Seg03
Rope2_Seg05 Rope2_Seg04
Rope2_Seg06 Rope2_Seg05
Rope2_Seg07 Rope2_Seg06
Rope2_Seg09 Rope2_Seg07
R_mid_hand01 Rope2_Seg09
R_mid_hand02 Rope2_Seg09
R_mid_hand03 Rope2_Seg09
spine02 spine01
spine03 spine02
pelvis spine03
null_rope03_connect pelvis
null_rope04_connect pelvis
Rope3_Seg01 null_rope03_connect
Rope3_Seg02 Rope3_Seg01
Rope3_Seg03 Rope3_Seg02
Rope3_Seg04 Rope3_Seg03
Rope3_Seg05 Rope3_Seg04
Rope3_Seg06 Rope3_Seg05
Rope3_Seg07 Rope3_Seg06
Rope3_Seg08 Rope3_Seg07
Rope3_Seg09 Rope3_Seg08
R_rear_hand01 Rope3_Seg09
R_rear_hand02 Rope3_Seg09
R_rear_hand03 Rope3_Seg09
Rope4_Seg01 null_rope04_connect
Rope4_Seg02 Rope4_Seg01
Rope4_Seg03 Rope4_Seg02
Rope4_Seg04 Rope4_Seg03
Rope4_Seg05 Rope4_Seg04
Rope4_Seg06 Rope4_Seg05
Rope4_Seg07 Rope4_Seg06
Rope4_Seg08 Rope4_Seg07
Rope4_Seg09 Rope4_Seg08
L_rear_hand01 Rope4_Seg09
L_rear_hand02 Rope4_Seg09
L_rear_hand03 Rope4_Seg09
[BasePosition]
#SegmentName Tx, Ty, Tz, Rx, Ry, Rz, BoneLength
MASTER 0.000000 0.000000 0.000000 -90.000000 0.000000 0.000000 10.000000 
root 0.000000 0.000000 0.000000 0.000000 0.000000 0.000000 10.000000 
chest 0.000000 0.000000 0.000000 0.000000 0.000000 0.000000 10.000000 
L_mid_tent01 0.000000 0.000000 0.000000 0.000000 0.000000 0.000000 10.000000 
R_mid_tent01 0.000000 0.000000 0.000000 0.000000 0.000000 0.000000 10.000000 
spine01 0.000000 0.000000 0.000000 0.000000 0.000000 0.000000 10.000000 
Bip01_Neck 0.000000 0.000000 0.000000 0.000000 0.000000 0.000000 10.000000 
L_humerus 0.000000 0.000000 0.000000 0.000000 0.000000 0.000000 10.000000 
R_humerus 0.000000 0.000000 0.000000 0.000000 0.000000 0.000000 10.000000 
weapon_bone 0.000000 0.000000 0.000000 0.000000 0.000000 0.000000 10.000000 
Bip01_Head 0.000000 0.000000 0.000000 0.000000 0.000000 0.000000 10.000000 
eye_left_bone 0.000000 0.000000 0.000000 0.000000 0.000000 0.000000 10.000000 
eye_right_bone 0.000000 0.000000 0.000000 0.000000 0.000000 0.000000 10.000000 
L_forearm 0.000000 0.000000 0.000000 0.000000 0.000000 0.000000 10.000000 
L_front_hand 0.000000 0.000000 0.000000 0.000000 0.000000 0.000000 10.000000 
L_weapon_bone 0.000000 0.000000 0.000000 0.000000 0.000000 0.000000 10.000000 
L_front_hand01_01 0.000000 0.000000 0.000000 0.000000 0.000000 0.000000 10.000000 
L_front_hand02_01 0.000000 0.000000 0.000000 0.000000 0.000000 0.000000 10.000000 
L_front_hand03_01 0.000000 0.000000 0.000000 0.000000 0.000000 0.000000 10.000000 
L_front_hand01_02 0.000000 0.000000 0.000000 0.000000 0.000000 0.000000 10.000000 
L_front_hand02_02 0.000000 0.000000 0.000000 0.000000 0.000000 0.000000 10.000000 
L_front_hand03_02 0.000000 0.000000 0.000000 0.000000 0.000000 0.000000 10.000000 
R_forearm 0.000000 0.000000 0.000000 0.000000 0.000000 0.000000 10.000000 
R_front_hand 0.000000 0.000000 0.000000 0.000000 0.000000 0.000000 10.000000 
R_weapon_bone 0.000000 0.000000 0.000000 0.000000 0.000000 0.000000 10.000000 
R_front_hand01_01 0.000000 0.000000 0.000000 0.000000 0.000000 0.000000 10.000000 
R_front_hand02_01 0.000000 0.000000 0.000000 0.000000 0.000000 0.000000 10.000000 
R_front_hand03_01 0.000000 0.000000 0.000000 0.000000 0.000000 0.000000 10.000000 
R_front_hand01_02 0.000000 0.000000 0.000000 0.000000 0.000000 0.000000 10.000000 
R_front_hand02_02 0.000000 0.000000 0.000000 0.000000 0.000000 0.000000 10.000000 
R_front_hand03_02 0.000000 0.000000 0.000000 0.000000 0.000000 0.000000 10.000000 
null_rope01_connect 0.000000 0.000000 0.000000 0.000000 0.000000 0.000000 10.000000 
Rope1_Seg01 0.000000 0.000000 0.000000 0.000000 0.000000 0.000000 10.000000 
Rope1_Seg02 0.000000 0.000000 0.000000 0.000000 0.000000 0.000000 10.000000 
Rope1_Seg03 0.000000 0.000000 0.000000 0.000000 0.000000 0.000000 10.000000 
Rope1_Seg04 0.000000 0.000000 0.000000 0.000000 0.000000 0.000000 10.000000 
Rope1_Seg05 0.000000 0.000000 0.000000 0.000000 0.000000 0.000000 10.000000 
Rope1_Seg06 0.000000 0.000000 0.000000 0.000000 0.000000 0.000000 10.000000 
Rope1_Seg07 0.000000 0.000000 0.000000 0.000000 0.000000 0.000000 10.000000 
Rope1_Seg09 0.000000 0.000000 0.000000 0.000000 0.000000 0.000000 10.000000 
L_mid_hand01 0.000000 0.000000 0.000000 0.000000 0.000000 0.000000 10.000000 
L_mid_hand02 0.000000 0.000000 0.000000 0.000000 0.000000 0.000000 10.000000 
L_mid_hand03 0.000000 0.000000 0.000000 0.000000 0.000000 0.000000 10.000000 
null_rope02_connect 0.000000 0.000000 0.000000 0.000000 0.000000 0.000000 10.000000 
Rope2_Seg01 0.000000 0.000000 0.000000 0.000000 0.000000 0.000000 10.000000 
Rope2_Seg02 0.000000 0.000000 0.000000 0.000000 0.000000 0.000000 10.000000 
Rope2_Seg03 0.000000 0.000000 0.000000 0.000000 0.000000 0.000000 10.000000 
Rope2_Seg04 0.000000 0.000000 0.000000 0.000000 0.000000 0.000000 10.000000 
Rope2_Seg05 0.000000 0.000000 0.000000 0.000000 0.000000 0.000000 10.000000 
Rope2_Seg06 0.000000 0.000000 0.000000 0.000000 0.000000 0.000000 10.000000 
Rope2_Seg07 0.000000 0.000000 0.000000 0.000000 0.000000 0.000000 10.000000 
Rope2_Seg09 0.000000 0.000000 0.000000 0.000000 0.000000 0.000000 10.000000 
R_mid_hand01 0.000000 0.000000 0.000000 0.000000 0.000000 0.000000 10.000000 
R_mid_hand02 0.000000 0.000000 0.000000 0.000000 0.000000 0.000000 10.000000 
R_mid_hand03 0.000000 0.000000 0.000000 0.000000 0.000000 0.000000 10.000000 
spine02 0.000000 0.000000 0.000000 0.000000 0.000000 0.000000 10.000000 
spine03 0.000000 0.000000 0.000000 0.000000 0.000000 0.000000 10.000000 
pelvis 0.000000 0.000000 0.000000 0.000000 0.000000 0.000000 10.000000 
null_rope03_connect 0.000000 0.000000 0.000000 0.000000 0.000000 0.000000 10.000000 
null_rope04_connect 0.000000 0.000000 0.000000 0.000000 0.000000 0.000000 10.000000 
Rope3_Seg01 0.000000 0.000000 0.000000 0.000000 0.000000 0.000000 10.000000 
Rope3_Seg02 0.000000 0.000000 0.000000 0.000000 0.000000 0.000000 10.000000 
Rope3_Seg03 0.000000 0.000000 0.000000 0.000000 0.000000 0.000000 10.000000 
Rope3_Seg04 0.000000 0.000000 0.000000 0.000000 0.000000 0.000000 10.000000 
Rope3_Seg05 0.000000 0.000000 0.000000 0.000000 0.000000 0.000000 10.000000 
Rope3_Seg06 0.000000 0.000000 0.000000 0.000000 0.000000 0.000000 10.000000 
Rope3_Seg07 0.000000 0.000000 0.000000 0.000000 0.000000 0.000000 10.000000 
Rope3_Seg08 0.000000 0.000000 0.000000 0.000000 0.000000 0.000000 10.000000 
Rope3_Seg09 0.000000 0.000000 0.000000 0.000000 0.000000 0.000000 10.000000 
R_rear_hand01 0.000000 0.000000 0.000000 0.000000 0.000000 0.000000 10.000000 
R_rear_hand02 0.000000 0.000000 0.000000 0.000000 0.000000 0.000000 10.000000 
R_rear_hand03 0.000000 0.000000 0.000000 0.000000 0.000000 0.000000 10.000000 
Rope4_Seg01 0.000000 0.000000 0.000000 0.000000 0.000000 0.000000 10.000000 
Rope4_Seg02 0.000000 0.000000 0.000000 0.000000 0.000000 0.000000 10.000000 
Rope4_Seg03 0.000000 0.000000 0.000000 0.000000 0.000000 0.000000 10.000000 
Rope4_Seg04 0.000000 0.000000 0.000000 0.000000 0.000000 0.000000 10.000000 
Rope4_Seg05 0.000000 0.000000 0.000000 0.000000 0.000000 0.000000 10.000000 
Rope4_Seg06 0.000000 0.000000 0.000000 0.000000 0.000000 0.000000 10.000000 
Rope4_Seg07 0.000000 0.000000 0.000000 0.000000 0.000000 0.000000 10.000000 
Rope4_Seg08 0.000000 0.000000 0.000000 0.000000 0.000000 0.000000 10.000000 
Rope4_Seg09 0.000000 0.000000 0.000000 0.000000 0.000000 0.000000 10.000000 
L_rear_hand01 0.000000 0.000000 0.000000 0.000000 0.000000 0.000000 10.000000 
L_rear_hand02 0.000000 0.000000 0.000000 0.000000 0.000000 0.000000 10.000000 
L_rear_hand03 0.000000 0.000000 0.000000 0.000000 0.000000 0.000000 10.000000 
#Beginning of Data. Separated by tabs
#Fr	Tx	Ty	Tz	Rx	Ry	Rz	SF
[MASTER]
36 0.000000 0.000000 0.000000 0.001660 0.001660 0.001660 0.000000
37 0.000000 0.000000 0.000000 0.001660 0.001660 0.001660 0.000000
[root]
36 -20.421286 -68.028877 1040.067017 -88.905472 -46.531044 -90.766953 1042.489502
37 -19.787251 -79.314995 1028.899170 -88.684738 -47.966454 -90.993050 1032.141479
[chest]
36 -84.512650 -34.090519 0.000000 2.093402 -2.037534 -127.111176 91.129311
37 -84.512650 -34.090519 0.000000 2.122064 -2.037948 -126.607979 91.129311
[L_mid_tent01]
36 27.299500 22.177483 -249.917984 -15.465299 -10.797568 64.155342 252.380859
37 27.299500 22.177483 -249.917984 -15.987815 -10.637847 67.476700 252.380859
[R_mid_tent01]
36 23.228794 24.509907 226.238495 -170.951279 5.141654 64.170738 228.744751
37 23.228794 24.509907 226.238495 -170.947113 5.330479 66.860634 228.744751
[spine01]
36 -0.361383 -0.195265 0.000000 0.001925 0.001345 20.096830 0.410763
37 -0.361383 -0.195265 0.000000 0.001926 0.001343 20.227203 0.410763
[Bip01_Neck]
36 165.484543 71.581718 0.000119 175.896118 1.177290 24.871183 180.302734
37 165.484543 71.581718 0.000119 175.896118 1.177290 24.871183 180.302734
[L_humerus]
36 -13.983130 -135.272980 -120.471481 -89.270027 0.673792 -145.149521 181.680161
37 -13.983130 -135.272980 -120.471481 -90.770332 0.865930 -159.155411 181.680161
[R_humerus]
36 -13.983309 -135.273102 125.287651 100.040771 -1.646096 -136.659836 184.909012
37 -13.983309 -135.273102 125.287651 101.762642 -0.170179 -152.988113 184.909012
[weapon_bone]
36 235.964890 -300.705902 0.000000 0.000000 -89.951546 -128.212341 382.234833
37 235.964890 -300.705902 0.000000 0.000000 -89.951546 -128.212341 382.234833
[Bip01_Head]
36 102.819786 23.735519 5.410324 3.150732 3.423701 -20.839092 105.662453
37 102.819786 23.735514 5.410329 3.150732 3.423701 -20.839092 105.662453
[eye_left_bone]
36 -24.626970 125.451866 -64.772606 0.000000 -90.000000 -99.840431 143.318359
37 -24.626970 125.451866 -64.772606 0.000000 -90.000000 -99.840431 143.318359
[eye_right_bone]
36 -24.626970 125.451866 64.327362 0.000000 -89.960434 80.159386 143.117676
37 -24.626970 125.451866 64.327362 0.000000 -89.960434 80.159386 143.117676
[L_forearm]
36 322.776093 0.000000 -0.000119 0.000135 0.002344 -83.408768 322.776093
37 322.776093 0.000000 -0.000119 0.000126 0.002344 -83.828087 322.776093
[L_front_hand]
36 241.149185 -0.042021 -3.300071 -177.732803 -0.044588 -80.260643 241.171753
37 241.149185 -0.042021 -3.300071 -177.732147 -0.090565 -79.185402 241.171753
[L_weapon_bone]
36 156.183838 0.000000 0.000000 0.002120 0.001008 39.120842 156.183838
37 156.183838 0.000000 0.000000 0.002123 0.001001 39.509483 156.183838
[L_front_hand01_01]
36 86.095154 20.947098 -0.655860 0.405585 -0.442306 -4.620490 88.609184
37 86.095154 20.947098 -0.655860 0.405585 -0.442306 -4.620490 88.609184
[L_front_hand02_01]
36 86.935165 -11.437475 24.513514 116.959450 3.630817 1.495453 91.046425
37 86.935165 -11.437475 24.513514 116.959450 3.630817 1.495453 91.046425
[L_front_hand03_01]
36 86.637497 -14.123976 -20.424902 -118.420097 -4.656303 -0.152527 90.126129
37 86.637497 -14.123976 -20.424902 -118.420097 -4.656303 -0.152527 90.126129
[L_front_hand01_02]
36 71.020905 -0.000179 0.000030 0.001534 0.001777 -8.378850 71.020905
37 71.020905 -0.000179 0.000030 0.001534 0.001777 -8.378851 71.020905
[L_front_hand02_02]
36 71.020927 -0.000119 0.000060 0.001534 0.001777 -8.378850 71.020927
37 71.020927 -0.000119 0.000060 0.001534 0.001777 -8.378851 71.020927
[L_front_hand03_02]
36 71.020905 -0.000060 0.000060 0.001534 0.001777 -8.378850 71.020905
37 71.020905 -0.000060 0.000060 0.001534 0.001777 -8.378851 71.020905
[R_forearm]
36 322.776428 -0.000060 0.000030 0.213283 -0.009207 -89.428101 322.776428
37 322.776428 -0.000060 0.000030 0.213331 -0.005675 -90.090698 322.776428
[R_front_hand]
36 238.847015 -0.006795 2.210259 -1.702099 -0.300871 -88.804047 238.857239
37 238.847015 -0.006795 2.210259 -1.702358 -0.301208 -88.808830 238.857239
[R_weapon_bone]
36 155.664093 0.002503 -0.000030 0.002809 0.002378 -134.099792 155.664078
37 155.664093 0.002503 -0.000030 0.002776 0.002416 -135.674271 155.664078
[R_front_hand01_01]
36 87.624611 14.231146 22.918642 -116.960213 3.496675 -1.324139 91.683487
37 87.624611 14.231146 22.918642 -116.960213 3.496675 -1.324139 91.683487
[R_front_hand02_01]
36 89.356956 14.367283 -19.491137 118.419647 -4.257089 0.609827 92.579636
37 89.356956 14.367283 -19.491137 118.419647 -4.257089 0.609827 92.579636
[R_front_hand03_01]
36 87.286232 -22.307278 -0.143439 -0.387970 -0.231462 4.232001 90.091743
37 87.286232 -22.307278 -0.143439 -0.387970 -0.231462 4.232001 90.091743
[R_front_hand01_02]
36 71.020905 0.000060 0.000119 0.001777 0.001534 8.377220 71.020905
37 71.020905 0.000060 0.000119 0.001777 0.001534 8.377220 71.020905
[R_front_hand02_02]
36 71.020844 -0.000030 -0.000119 0.001777 0.001534 8.377220 71.020836
37 71.020844 -0.000030 -0.000119 0.001777 0.001534 8.377220 71.020836
[R_front_hand03_02]
36 71.020905 0.000000 0.000030 0.001777 0.001534 8.377220 71.020905
37 71.020905 0.000000 0.000030 0.001777 0.001534 8.377220 71.020905
[null_rope01_connect]
36 328.732483 0.000000 -0.000238 126.461594 -71.644882 -52.509331 328.732483
37 328.732483 0.000000 -0.000238 125.670944 -71.411331 -53.559765 328.732483
[Rope1_Seg01]
36 0.000000 0.000000 0.000000 126.481377 27.839455 177.754745 0.000000
37 0.000000 0.000000 0.000000 126.467384 30.008392 173.912857 0.000000
[Rope1_Seg02]
36 139.999863 -0.000179 0.000000 0.883655 -7.074249 4.824504 139.999863
37 139.999863 -0.000179 0.000000 0.196699 -7.375394 6.440093 139.999863
[Rope1_Seg03]
36 139.999924 0.000060 -0.000060 -0.319068 -19.300562 12.254493 139.999924
37 139.999924 0.000060 -0.000060 -2.409443 -22.378202 16.811096 139.999924
[Rope1_Seg04]
36 139.999924 -0.000060 -0.000119 -16.808784 -42.398289 24.580177 139.999924
37 139.999924 -0.000060 -0.000119 -18.558178 -37.121178 30.785189 139.999924
[Rope1_Seg05]
36 139.999832 0.000119 -0.000060 67.526009 -12.551104 50.745655 139.999832
37 139.999832 0.000119 -0.000060 91.452286 -7.220013 51.779999 139.999832
[Rope1_Seg06]
36 139.999954 0.000119 -0.000060 46.727413 28.392775 14.226235 139.999954
37 139.999954 0.000119 -0.000060 22.443451 24.735697 1.032762 139.999954
[Rope1_Seg07]
36 139.999985 0.000060 0.000000 4.748124 8.158034 -1.465961 139.999985
37 139.999985 0.000060 0.000000 3.459492 7.264375 -1.752006 139.999985
[Rope1_Seg09]
36 121.602913 0.000119 -0.000089 -89.793175 -1.359789 0.847147 121.602913
37 121.602913 0.000119 -0.000089 -89.793175 -1.359789 0.847147 121.602913
[L_mid_hand01]
36 103.859421 1.038730 8.195221 104.475319 -7.411073 -2.437923 104.187431
37 103.859421 1.038730 8.195221 104.451263 -6.521521 -2.209420 104.187431
[L_mid_hand02]
36 105.572853 -4.139662 -10.864139 -136.287445 9.471239 -9.168161 106.211075
37 105.572853 -4.139662 -10.864139 -136.177567 8.837038 -8.500269 106.211075
[L_mid_hand03]
36 104.641464 17.579376 -3.913581 -18.633749 2.245988 10.522179 106.179977
37 104.641464 17.579376 -3.913581 -18.667397 1.949209 9.654200 106.179977
[null_rope02_connect]
36 328.732849 0.000179 -0.000119 135.927094 79.099411 -116.792030 328.732849
37 328.732849 0.000179 -0.000119 134.218658 78.897827 -117.254463 328.732849
[Rope2_Seg01]
36 0.000095 0.000153 0.000053 -65.370201 26.017609 4.020700 0.000188
37 0.000095 0.000153 0.000055 -66.621475 28.670830 7.076437 0.000188
[Rope2_Seg02]
36 139.999741 -0.000060 -0.000119 -1.108553 -5.769258 3.742592 139.999756
37 139.999741 -0.000060 -0.000119 -0.218375 -6.898365 3.156477 139.999756
[Rope2_Seg03]
36 140.000107 0.000030 0.000000 -2.648762 -13.236258 9.177636 140.000107
37 140.000107 0.000030 0.000000 -2.230366 -16.619150 9.696203 140.000107
[Rope2_Seg04]
36 139.999802 0.000000 -0.000060 -10.751079 -30.143702 36.128361 139.999802
37 139.999802 0.000000 -0.000060 -9.591861 -37.176186 30.498926 139.999802
[Rope2_Seg05]
36 139.999985 -0.000060 0.000119 -22.761644 -50.201946 -26.677069 139.999985
37 139.999985 -0.000060 0.000119 -30.309299 -46.994469 -35.243397 139.999985
[Rope2_Seg06]
36 139.999893 -0.000030 -0.000119 -24.740938 -10.576940 -27.083748 139.999893
37 139.999893 -0.000030 -0.000119 -17.829496 -4.869555 -21.888781 139.999893
[Rope2_Seg07]
36 139.999893 0.000060 -0.000060 -5.549022 -0.641247 -7.623121 139.999893
37 139.999893 0.000060 -0.000060 -4.542243 -0.094734 -6.923256 139.999893
[Rope2_Seg09]
36 121.338966 0.000089 -0.000060 33.793236 -1.359788 -0.847141 121.338966
37 121.338966 0.000089 -0.000060 33.793236 -1.359788 -0.847141 121.338966
[R_mid_hand01]
36 104.680779 11.144459 -10.335981 -46.867168 8.516070 10.631708 105.778534
37 104.680779 11.144459 -10.335981 -46.951630 7.883041 10.029503 105.778534
[R_mid_hand02]
36 104.070427 2.443552 8.231699 75.427673 -9.586800 3.014044 104.424065
37 104.070427 2.443552 8.231699 75.466881 -8.748224 2.792380 104.424065
[R_mid_hand03]
36 106.028137 -11.221827 -5.996406 -164.825317 4.506366 -13.453763 106.788818
37 106.028137 -11.221827 -5.996406 -164.761459 4.283054 -12.616201 106.788818
[spine02]
36 129.756927 0.001550 0.000119 -1.834784 -3.733028 18.641951 129.756927
37 129.756927 0.001550 0.000119 -1.905555 -3.714195 19.743141 129.756927
[spine03]
36 78.965050 0.026184 -1.469639 3.065988 5.282619 25.697504 78.978729
37 78.975090 0.024438 -1.371663 3.305396 5.429647 28.742277 78.987000
[pelvis]
36 169.435242 0.051022 0.000000 -5.026792 -2.266395 9.187503 169.435257
37 169.435242 0.051022 0.000000 -5.175694 -2.311198 9.506994 169.435257
[null_rope03_connect]
36 -1.257226 -2.466202 137.391083 154.313385 -85.854805 -91.121727 137.418976
37 -1.257226 -2.466202 137.391083 154.711334 -85.941795 -94.654922 137.418976
[null_rope04_connect]
36 -1.259640 -2.480268 -137.844437 154.313385 -85.854805 -91.121727 137.872513
37 -1.259640 -2.480268 -137.844437 154.711334 -85.941795 -94.654922 137.872513
[Rope3_Seg01]
36 0.000000 0.000000 0.000000 -141.944809 47.782513 -86.322716 0.000000
37 0.000000 0.000000 0.000000 -144.339951 51.737427 -87.776230 0.000000
[Rope3_Seg02]
36 139.999924 -0.000119 0.000060 -9.913364 -14.801682 16.514339 139.999924
37 139.999924 -0.000119 0.000060 -8.168920 -12.911734 13.185845 139.999924
[Rope3_Seg03]
36 139.999924 -0.000119 0.000119 -48.014935 -45.858025 54.927464 139.999924
37 139.999924 -0.000119 0.000119 -42.293503 -44.497047 48.442348 139.999924
[Rope3_Seg04]
36 139.999924 0.000119 0.000000 -8.622711 -35.112488 12.894000 139.999924
37 139.999924 0.000119 0.000000 -9.280990 -36.367287 13.559738 139.999924
[Rope3_Seg05]
36 139.999924 -0.000238 0.000060 -7.699595 -60.018066 28.440161 139.999924
37 139.999924 -0.000238 0.000060 -10.659054 -62.133194 32.891567 139.999924
[Rope3_Seg06]
36 139.999893 -0.000119 -0.000060 4.642699 -16.019239 7.246822 139.999893
37 139.999893 -0.000119 -0.000060 4.985469 -18.245209 8.823141 139.999893
[Rope3_Seg07]
36 139.999771 0.000060 -0.000119 2.377194 -5.438087 3.068547 139.999771
37 139.999771 0.000060 -0.000119 2.364160 -5.463309 3.331257 139.999771
[Rope3_Seg08]
36 139.999985 -0.000060 0.000000 1.281303 -1.980881 1.236001 139.999985
37 139.999985 -0.000060 0.000000 1.330240 -2.147039 1.436102 139.999985
[Rope3_Seg09]
36 90.185997 -0.000179 -0.000060 89.793228 -1.359877 -0.847183 90.185997
37 90.185997 -0.000179 -0.000060 89.793228 -1.359877 -0.847183 90.185997
[R_rear_hand01]
36 103.366196 -6.073594 -10.757982 -156.882309 8.850403 -9.222911 104.101845
37 103.366196 -6.073594 -10.757982 -156.772781 8.537848 -8.485456 104.101845
[R_rear_hand02]
36 100.509819 12.039542 -7.992327 -38.313599 6.289539 10.913098 101.543350
37 100.509819 12.039542 -7.992327 -38.379074 5.796878 10.284416 101.543350
[R_rear_hand03]
36 101.539970 5.215704 5.435467 84.239281 -9.284537 4.796115 101.819031
37 101.539970 5.215704 5.435467 84.253265 -8.490866 4.713901 101.819031
[Rope4_Seg01]
36 0.000000 0.000000 0.000000 80.051460 60.631653 -73.835800 0.000000
37 0.000000 0.000000 0.000000 82.182724 63.218647 -72.959579 0.000000
[Rope4_Seg02]
36 139.999985 0.000060 0.000119 3.562984 2.602289 -6.632548 139.999985
37 139.999985 0.000060 0.000119 3.301607 2.343811 -6.293219 139.999985
[Rope4_Seg03]
36 139.999924 0.000000 -0.000238 11.142160 10.410043 -38.386097 139.999924
37 139.999924 0.000000 -0.000238 10.057087 8.332717 -30.295240 139.999924
[Rope4_Seg04]
36 139.999985 0.000000 0.000119 -3.656658 1.796813 -70.561348 139.999985
37 139.999985 0.000000 0.000119 -1.158058 3.049323 -70.625519 139.999985
[Rope4_Seg05]
36 139.999802 -0.000060 -0.000119 -23.100990 9.436474 -47.864311 139.999802
37 139.999802 -0.000060 -0.000119 -21.951744 7.297309 -49.588528 139.999802
[Rope4_Seg06]
36 139.999924 0.000000 0.000060 -11.312111 12.365679 -21.122238 139.999924
37 139.999924 0.000000 0.000060 -16.302071 14.968671 -29.021557 139.999924
[Rope4_Seg07]
36 139.999802 0.000000 0.000000 -2.536165 4.946576 -6.067251 139.999802
37 139.999802 0.000000 0.000000 -2.896654 5.728560 -6.854103 139.999802
[Rope4_Seg08]
36 139.999924 0.000000 0.000119 -2.508698 2.382453 -2.687997 139.999924
37 139.999924 0.000000 0.000119 -2.547462 2.610842 -2.842507 139.999924
[Rope4_Seg09]
36 90.185791 0.000060 0.000060 -135.617828 2.228885 0.850567 90.185791
37 90.185791 0.000060 0.000060 -135.617828 2.228885 0.850567 90.185791
[L_rear_hand01]
36 101.696655 -8.392275 -7.654577 -38.522995 -4.515821 171.335175 102.329041
37 101.696655 -8.392275 -7.654577 -38.574173 -3.969442 172.019455 102.329041
[L_rear_hand02]
36 102.726799 -1.568258 5.773216 84.274239 6.439622 175.490463 102.900848
37 102.726799 -1.568258 5.773216 84.288513 5.574037 175.578354 102.900848
[L_rear_hand03]
36 104.552910 9.721220 -10.420293 -156.499069 -7.719937 -173.426910 105.519653
37 104.552910 9.721220 -10.420293 -156.395264 -7.373482 -174.234283 105.519653
